# xmcd CD database file
#
# Track frame offsets:
#	150
#	30228
#	60243
#	83512
#	102586
#	124528
#	147599
#	167469
#	192006
#	221571
#
# Disc length: 4440 seconds
#
# Revision: 0
# Processed by: cddbd v1.5.1PL0 Copyright (c) Steve Scherf et al.
# Submitted via: CDex 1.51
#
DISCID=7911560a
DTITLE=松永貴志 - MOKO-MOKO
DYEAR=2003
DGENRE=Jazz
TTITLE0=南十字星
TTITLE1=モコモコ
TTITLE2=新しい朝
TTITLE3=道頓堀川
TTITLE4=ジャングル・ソング
TTITLE5=哀しみの世界
TTITLE6=暴風ゾーン
TTITLE7=夢の扉
TTITLE8=鯨のブルース
TTITLE9=不明
EXTD=YEAR: 2003
EXTT0=
EXTT1=
EXTT2=
EXTT3=
EXTT4=
EXTT5=
EXTT6=
EXTT7=
EXTT8=
EXTT9=
PLAYORDER=
